<svg width="48" height="48" viewBox="0 0 48 48" fill="none" xmlns="http://www.w3.org/2000/svg">
<path d="M44.5304 20.7083H26.7584V2.95833C26.7584 2.17373 26.4463 1.42127 25.8908 0.866476C25.3353 0.311681 24.5819 0 23.7964 0C23.0108 0 22.2574 0.311681 21.7019 0.866476C21.1464 1.42127 20.8344 2.17373 20.8344 2.95833V20.7083H3.06237C2.2768 20.7083 1.52341 21.02 0.967922 21.5748C0.41244 22.1296 0.100372 22.8821 0.100372 23.6667C0.100372 24.4513 0.41244 25.2037 0.967922 25.7585C1.52341 26.3133 2.2768 26.625 3.06237 26.625H20.8344V44.375C20.8344 45.1596 21.1464 45.9121 21.7019 46.4669C22.2574 47.0217 23.0108 47.3333 23.7964 47.3333C24.5819 47.3333 25.3353 47.0217 25.8908 46.4669C26.4463 45.9121 26.7584 45.1596 26.7584 44.375V26.625H44.5304C45.3159 26.625 46.0693 26.3133 46.6248 25.7585C47.1803 25.2037 47.4924 24.4513 47.4924 23.6667C47.4924 22.8821 47.1803 22.1296 46.6248 21.5748C46.0693 21.02 45.3159 20.7083 44.5304 20.7083Z" fill="#475467"/>
</svg>
