<svg width="33" height="44" viewBox="0 0 33 44" fill="none" xmlns="http://www.w3.org/2000/svg">
    <g clip-path="url(#clip0_103_23)">
        <path
            d="M30 4.90115L30 39.1021C29.999 39.4484 29.9117 39.7878 29.7476 40.0838C29.5834 40.3798 29.3486 40.6213 29.0683 40.7821C28.7881 40.943 28.4731 41.0172 28.1572 40.9967C27.8413 40.9762 27.5364 40.8618 27.2755 40.6659L4.70194 23.5654C3.76602 22.8566 3.76602 21.1504 4.70194 20.4398L27.2755 3.3393C27.5359 3.14136 27.8409 3.02529 28.1573 3.00368C28.4737 2.98208 28.7895 3.05578 29.0703 3.21677C29.3512 3.37776 29.5863 3.61989 29.7502 3.91685C29.9141 4.21381 30.0005 4.55423 30 4.90115Z"
            fill="#403D3D" />
        <path
            d="M32.442 41.1642V2.1642C32.4408 1.76934 32.3319 1.3823 32.1271 1.04473C31.9222 0.707159 31.6292 0.431852 31.2795 0.248437C30.9298 0.0650192 30.5368 -0.0195603 30.1426 0.0038047C29.7484 0.0271658 29.3681 0.157583 29.0425 0.381025L0.875875 19.881C-0.291958 20.6892 -0.291959 22.6348 0.875875 23.4452L29.0425 42.9452C29.3674 43.1709 29.7479 43.3033 30.1428 43.3279C30.5376 43.3525 30.9316 43.2685 31.282 43.0849C31.6324 42.9013 31.9258 42.6252 32.1304 42.2866C32.3349 41.948 32.4427 41.5598 32.442 41.1642ZM5.91554 21.6642L28.1087 6.2982V37.0302L5.91554 21.6642Z"
            fill="#403D3D" />
    </g>
    <defs>
        <clipPath id="clip0_103_23">
            <rect width="33" height="44" fill="white" />
        </clipPath>
    </defs>
</svg>
