<svg width="33" height="44" viewBox="0 0 33 44" fill="none" xmlns="http://www.w3.org/2000/svg">
    <g clip-path="url(#clip0_103_21)">
        <path
            d="M3 3.90115L3 38.1021C3.00107 38.4484 3.09506 38.7878 3.27186 39.0838C3.44865 39.3798 3.70156 39.6213 4.00335 39.7821C4.30515 39.943 4.6444 40.0172 4.9846 39.9967C5.32479 39.9762 5.65305 39.8618 5.93403 39.6659L30.2441 22.5654C31.252 21.8566 31.252 20.1504 30.2441 19.4398L5.93403 2.3393C5.65364 2.14136 5.32522 2.02529 4.98446 2.00368C4.64369 1.98208 4.30362 2.05578 4.00118 2.21677C3.69875 2.37776 3.44552 2.61989 3.26901 2.91685C3.0925 3.21381 2.99946 3.55423 3 3.90115Z"
            fill="#403D3D" />
        <path
            d="M0.441989 2.16791L0.441988 41.1679C0.443227 41.5628 0.552129 41.9498 0.756975 42.2874C0.961818 42.6249 1.25484 42.9003 1.60452 43.0837C1.95419 43.2671 2.34727 43.3517 2.74143 43.3283C3.1356 43.3049 3.51593 43.1745 3.84149 42.9511L32.0082 23.4511C33.176 22.6429 33.176 20.6972 32.0082 19.8869L3.84149 0.386909C3.51661 0.161197 3.13609 0.0288338 2.74127 0.00420101C2.34644 -0.0204318 1.95242 0.0636081 1.60201 0.24719C1.25159 0.430771 0.958191 0.706874 0.753677 1.0455C0.549167 1.38412 0.441368 1.77232 0.441989 2.16791ZM26.9685 21.6679L4.77532 37.0339V6.30191L26.9685 21.6679Z"
            fill="#403D3D" />
    </g>
    <defs>
        <clipPath id="clip0_103_21">
            <rect width="33" height="44" fill="white" />
        </clipPath>
    </defs>
</svg>