<svg width="34" height="34" viewBox="0 0 34 34" fill="none" xmlns="http://www.w3.org/2000/svg">
<path d="M28.3311 28.6955C25.1414 31.8852 21.2651 33.48 16.7021 33.48C12.139 33.48 8.24056 31.8852 5.00658 28.6955C1.8169 25.4615 0.222061 21.563 0.222061 17C0.222061 12.437 1.8169 8.56066 5.00658 5.37099C8.24056 2.13701 12.139 0.52002 16.7021 0.52002C21.2651 0.52002 25.1414 2.13701 28.3311 5.37099C31.5651 8.56066 33.1821 12.437 33.1821 17C33.1821 21.563 31.5651 25.4615 28.3311 28.6955ZM26.0717 7.63034C23.5023 5.01658 20.379 3.7097 16.7021 3.7097C13.0251 3.7097 9.87969 5.01658 7.26593 7.63034C4.69647 10.1998 3.41174 13.323 3.41174 17C3.41174 20.677 4.69647 23.8224 7.26593 26.4361C9.87969 29.0056 13.0251 30.2903 16.7021 30.2903C20.379 30.2903 23.5023 29.0056 26.0717 26.4361C28.6855 23.8224 29.9924 20.677 29.9924 17C29.9924 13.323 28.6855 10.1998 26.0717 7.63034ZM18.0311 25.5058H15.373C14.8414 25.5058 14.5756 25.24 14.5756 24.7084V17H10.1234C9.76894 17 9.52529 16.845 9.39238 16.5349C9.25948 16.1804 9.30378 15.8925 9.52529 15.671L16.1704 9.02583C16.5249 8.67142 16.8793 8.67142 17.2337 9.02583L23.8788 15.671C24.1003 15.8925 24.1446 16.1804 24.0117 16.5349C23.8788 16.845 23.6352 17 23.2808 17H18.8285V24.7084C18.8285 25.24 18.5627 25.5058 18.0311 25.5058Z" fill="#1976B9"/>
</svg>
